<?xml version="1.0" encoding="iso-8859-1"?>
<!-- Generator: Adobe Illustrator 19.0.0, SVG Export Plug-In . SVG Version: 6.00 Build 0)  -->
<svg width="36px" height="27px" version="1.1" id="Capa_1" xmlns="http://www.w3.org/2000/svg" xmlns:xlink="http://www.w3.org/1999/xlink" x="0px" y="0px"
	 viewBox="0 0 512 512" style="enable-background:new 0 0 512 512;" xml:space="preserve">
<g>
	<g>
		<path d="M76.002,358c-24.814,0-45,20.186-45,45c0,24.814,20.186,45,45,45c24.814,0,45-20.185,45-45
			C121.002,378.186,100.816,358,76.002,358z"/>
	</g>
</g>
<g>
	<g>
		<path d="M382.213,8.789c-11.7-11.7-30.743-11.68-42.422,0L231.144,118.437c0,0-11.114-2.222-26.28-5.254
			c-32.58-6.512-83.861-16.763-83.861-16.763V30c0-16.538-13.462-30-30-30c-16.538,0-30,13.462-30,30v91
			c0,14.253,10.137,26.631,24.111,29.414l114.639,22.925l-35.449,119.652L41.135,244.139c-3.545-1.406-7.251-2.124-11.045-2.124
			c-12.202,0-23.438,7.573-27.949,18.838c-6.138,15.352,1.377,32.856,16.714,39.009l51.773,20.308c0,0,40.187,15.763,80.374,31.527
			c0,42.42,0,84.84,0,84.84V482c0,16.538,13.462,30,30,30c16.538,0,30-13.462,30-30V337.801l55.591-169.97l115.62-116.62
			C393.945,39.479,393.939,20.513,382.213,8.789z"/>
	</g>
</g>
<g>
	<g>
		<circle cx="302" cy="436.999" r="30"/>
	</g>
</g>
<g>
	<g>
		<circle cx="482" cy="436.999" r="30"/>
	</g>
</g>
<g>
	<g>
		<path d="M424.134,452h-64.263c-6.674,25.666-29.76,44.766-57.455,44.958c12.501,9.324,27.83,15.042,44.586,15.042h90
			c16.756,0,32.086-5.718,44.587-15.042C453.894,496.766,430.808,477.666,424.134,452z"/>
	</g>
</g>
<g>
	<g>
		<path d="M437.002,362h-90c-16.756,0-32.086,5.718-44.586,15.042c27.695,0.192,50.781,19.292,57.455,44.958h64.263
			c6.674-25.666,29.76-44.766,57.455-44.958C469.088,367.719,453.758,362,437.002,362z"/>
	</g>
</g>
<g>
	<g>
		<path d="M437.002,272h-90c-24.814,0-45,20.186-45,45v15h30v-15c0-8.276,6.724-15,15-15h90c8.276,0,15,6.724,15,15v15h30v-15
			C482.002,292.186,461.816,272,437.002,272z"/>
	</g>
</g>
<g>
</g>
<g>
</g>
<g>
</g>
<g>
</g>
<g>
</g>
<g>
</g>
<g>
</g>
<g>
</g>
<g>
</g>
<g>
</g>
<g>
</g>
<g>
</g>
<g>
</g>
<g>
</g>
<g>
</g>
</svg>
