<?xml version="1.0" encoding="iso-8859-1"?>
<svg id="Layer_1" width="36px" height="27px" x="0px" y="0px"
viewBox="0 0 512 512" xmlns="http://www.w3.org/2000/svg" data-name="Layer 1"><path d="m87.21 111.034c.673.207 1.79.4 1.79.607v44.359l10 3v-44.48c19 4.986 35.7 8.31 49.754 9.494 3.74.316 7.274.371 10.384.371 13.695 0 21.384-3.385 23.293-9.385h.027c2.343-7-5.1-16.063-22.781-25.99-14.977-8.41-35.653-16.81-58.223-23.735s-44.424-11.511-61.541-12.954c-20.2-1.7-31.166 1.191-33.507 8.823s5 16.171 22.684 26.1c14.98 8.408 35.549 16.862 58.12 23.79z"/><path d="m160.532 435.862a4.886 4.886 0 0 0 3.833-1.852 5.009 5.009 0 0 0 -.8-7.033l-64.565-52.12v-152.857l-10-3v155.857l-64.123 52.12a4.989 4.989 0 0 0 -.627 7.033 5.106 5.106 0 0 0 3.945 1.852 4.47 4.47 0 0 0 2.949-1.114l57.856-47.021v67.4a5 5 0 0 0 10 0v-67.4l58.275 47.021a5.288 5.288 0 0 0 3.257 1.114z"/><path d="m472.084 52.347c-17.117 1.442-38.975 6.051-61.545 12.979s-43.251 15.374-58.23 23.786c-17.682 9.927-25.138 18.462-22.8 26.092 1.909 6.219 9.541 9.283 23.237 9.283 3.109 0 6.757-.158 10.5-.473 14.054-1.184 30.754-4.508 49.754-9.494v48.48l10-3v-48.359c0-.2 1.118-.4 1.791-.607 22.57-6.928 43.138-15.375 58.118-23.785 17.681-9.928 25.026-18.462 22.684-26.092s-13.305-10.517-33.509-8.81z"/><path d="m487.123 426.977-64.123-52.12v-155.857l-10 3v152.857l-64.57 52.12a5.016 5.016 0 0 0 -.85 7.033 4.883 4.883 0 0 0 3.832 1.852 5.518 5.518 0 0 0 3.34-1.114l58.248-47.021v67.4a5 5 0 0 0 10 0v-67.4l57.828 47.021a4.686 4.686 0 0 0 3.033 1.114 5.1 5.1 0 0 0 3.944-1.852 4.994 4.994 0 0 0 -.682-7.033z"/><path d="m260 189v-23h34.043a9.807 9.807 0 0 0 9.957-9.555v-9.766a9.911 9.911 0 0 0 -9.957-9.679h-78.265a9.756 9.756 0 0 0 -9.778 9.679v9.766a9.651 9.651 0 0 0 9.778 9.555h34.222v23z"/><path d="m281.827 300.778a25.3 25.3 0 1 0 25.3 25.3 25.332 25.332 0 0 0 -25.3-25.3z"/><path d="m70.327 160.745a3.42 3.42 0 0 0 -1.393 2.3l-6.211 41.333a3.992 3.992 0 0 0 3.188 4.438l96.257 17.127a126.43 126.43 0 0 1 20.425-18.087l3.557-23.681a3.993 3.993 0 0 0 -3.188-4.439l-110.013-19.577a3.424 3.424 0 0 0 -2.622.586z"/><path d="m254.91 218.773a91.4 91.4 0 1 0 91.4 91.4 91.5 91.5 0 0 0 -91.4-91.4zm26.917 142.608a35.3 35.3 0 1 1 35.3-35.3 35.342 35.342 0 0 1 -35.3 35.3z"/><path d="m370.254 310.174a115.344 115.344 0 1 0 -175.469 98.4c-.045.051-.1.089-.142.142l-18.227 22.275a5 5 0 0 0 7.74 6.332l18.227-22.275a4.982 4.982 0 0 0 .92-1.736 115.16 115.16 0 0 0 103.215 0 5 5 0 0 0 .92 1.736l18.226 22.275a5 5 0 0 0 7.74-6.332l-18.225-22.275c-.044-.053-.1-.091-.142-.142a115.379 115.379 0 0 0 55.217-98.4zm-115.344 101.401a101.4 101.4 0 1 1 101.4-101.4 101.515 101.515 0 0 1 -101.4 101.4z"/><path d="m442.145 205.75-6.083-37.126a3.705 3.705 0 0 0 -4.225-3.037l-105.557 17.291a3.686 3.686 0 0 0 -3.037 4.228l3.323 20.288a126.278 126.278 0 0 1 20.294 17.695l92.247-15.111a3.686 3.686 0 0 0 3.038-4.228z"/></svg>